<svg xmlns="http://www.w3.org/2000/svg" width="1600" height="1000" viewBox="0 0 1600 1000">
  <defs>
    <style>
      .bg{fill:#070808}.panel{fill:#0c0e0e;stroke:#343837;stroke-width:2}.chain{fill:#10100c;stroke:#8b6427;stroke-width:2}.cloud{fill:#091013;stroke:#356477;stroke-width:2}.human{fill:#11100d;stroke:#8b6427;stroke-width:2}.title{fill:#f1efe8;font:700 26px Arial}.label{fill:#f1efe8;font:700 19px Arial}.small{fill:#979a95;font:15px Arial}.mono{fill:#6bc7e8;font:14px monospace;letter-spacing:1px}.amber{fill:#d89b34}.green{fill:#53c79a}.line{fill:none;stroke:#6bc7e8;stroke-width:3;marker-end:url(#arrow)}.line2{fill:none;stroke:#d89b34;stroke-width:3;marker-end:url(#arrow2)}.audit{fill:none;stroke:#69706d;stroke-width:2;stroke-dasharray:9 8;marker-end:url(#arrow3)}
    </style>
    <marker id="arrow" viewBox="0 0 10 10" refX="9" refY="5" markerWidth="7" markerHeight="7" orient="auto"><path d="M0 0L10 5L0 10Z" fill="#6bc7e8"/></marker>
    <marker id="arrow2" viewBox="0 0 10 10" refX="9" refY="5" markerWidth="7" markerHeight="7" orient="auto"><path d="M0 0L10 5L0 10Z" fill="#d89b34"/></marker>
    <marker id="arrow3" viewBox="0 0 10 10" refX="9" refY="5" markerWidth="7" markerHeight="7" orient="auto"><path d="M0 0L10 5L0 10Z" fill="#69706d"/></marker>
  </defs>
  <rect class="bg" width="1600" height="1000"/>
  <text x="62" y="62" class="title">ZERO · Prevention Finance Protocol</text>
  <text x="62" y="91" class="mono">AGENT PROPOSES · HUMAN AUTHORIZES · CONTRACT SETTLES · AUDITOR RECONSTRUCTS</text>

  <rect x="55" y="135" width="250" height="700" rx="8" class="panel"/>
  <text x="82" y="177" class="mono">STAKEHOLDERS</text>
  <g><rect x="82" y="205" width="196" height="78" rx="5" class="panel"/><text x="102" y="237" class="label">Fund manager</text><text x="102" y="261" class="small">Funds + authorizes</text></g>
  <g><rect x="82" y="302" width="196" height="78" rx="5" class="panel"/><text x="102" y="334" class="label">Program operator</text><text x="102" y="358" class="small">Executes + submits</text></g>
  <g><rect x="82" y="399" width="196" height="78" rx="5" class="panel"/><text x="102" y="431" class="label">Verifier</text><text x="102" y="455" class="small">Challenges evidence</text></g>
  <g><rect x="82" y="496" width="196" height="78" rx="5" class="panel"/><text x="102" y="528" class="label">Community</text><text x="102" y="552" class="small">Confirms impact</text></g>
  <g><rect x="82" y="593" width="196" height="78" rx="5" class="panel"/><text x="102" y="625" class="label">Public auditor</text><text x="102" y="649" class="small">Reconstructs proof</text></g>
  <text x="82" y="718" class="small">Role-scoped access</text><text x="82" y="742" class="small">Explicit permissions</text><text x="82" y="766" class="small">Separation of powers</text>

  <rect x="365" y="135" width="505" height="700" rx="8" class="cloud"/>
  <text x="392" y="177" class="mono">APPLICATION + AGENT LAYER · VERCEL</text>
  <rect x="395" y="205" width="445" height="100" rx="5" class="panel"/>
  <text x="420" y="240" class="label">React role-scoped product</text><text x="420" y="267" class="small">Landing · Access gateway · Programs · Evidence</text><text x="420" y="289" class="small">Approvals · Settlements · Public audit trail</text>
  <rect x="395" y="345" width="210" height="125" rx="5" class="cloud"/>
  <text x="420" y="380" class="label">Vercel Functions</text><text x="420" y="408" class="small">Agent orchestration</text><text x="420" y="432" class="small">Receipt reconstruction</text><text x="420" y="456" class="small">Policy enforcement</text>
  <rect x="630" y="345" width="210" height="125" rx="5" class="cloud"/>
  <text x="655" y="380" class="label">AWS DynamoDB</text><text x="655" y="408" class="small">Operational events</text><text x="655" y="432" class="small">Receipt state</text><text x="655" y="456" class="small">Audit reconstruction</text>
  <rect x="395" y="515" width="210" height="130" rx="5" class="cloud"/>
  <text x="420" y="550" class="label">CDP API Wallets</text><text x="420" y="578" class="small">Agent-controlled</text><text x="420" y="602" class="small">testnet wallets</text><text x="420" y="626" class="small">Bounded policies</text>
  <rect x="630" y="515" width="210" height="130" rx="5" class="cloud"/>
  <text x="655" y="550" class="label">x402 evidence</text><text x="655" y="578" class="small">USDC payment</text><text x="655" y="602" class="small">before resource</text><text x="655" y="626" class="small">delivery</text>
  <rect x="395" y="690" width="445" height="105" rx="5" class="human"/>
  <text x="420" y="727" class="label">Human authorization boundary</text><text x="420" y="756" class="small">EIP-712 typed signature binds program, receipt, beneficiary,</text><text x="420" y="780" class="small">amount, nonce and expiry. Agents cannot release funds.</text>

  <rect x="930" y="135" width="610" height="700" rx="8" class="chain"/>
  <text x="957" y="177" class="mono amber">PUBLIC SETTLEMENT LAYER · BASE SEPOLIA</text>
  <rect x="960" y="205" width="250" height="105" rx="5" class="chain"/>
  <text x="985" y="243" class="label">ZERO ERC-20</text><text x="985" y="271" class="small">Prevention settlement value</text><text x="985" y="294" class="green">DEPLOYED</text>
  <rect x="1250" y="205" width="260" height="105" rx="5" class="chain"/>
  <text x="1275" y="243" class="label">Ethereum Attestation</text><text x="1275" y="268" class="label">Service</text><text x="1275" y="294" class="green">ATTESTATION CONFIRMED</text>
  <rect x="960" y="365" width="250" height="115" rx="5" class="chain"/>
  <text x="985" y="403" class="label">Approval Escrow</text><text x="985" y="431" class="small">EIP-712 authorization</text><text x="985" y="457" class="green">DEPLOYED + CANARY</text>
  <rect x="1250" y="365" width="260" height="115" rx="5" class="chain"/>
  <text x="1275" y="403" class="label">Settlement Escrow</text><text x="1275" y="431" class="small">Conditional capital release</text><text x="1275" y="457" class="green">DEPLOYED + SETTLED</text>
  <rect x="960" y="535" width="550" height="105" rx="5" class="chain"/>
  <text x="985" y="573" class="label">Prevention Receipt</text><text x="985" y="601" class="small">Evidence hash · Counterfactual · Confidence · Beneficiary · Value</text><text x="985" y="625" class="small">Links the complete decision and settlement lineage.</text>
  <rect x="960" y="690" width="550" height="105" rx="5" class="panel"/>
  <text x="985" y="727" class="label">BaseScan + ZERO public audit trail</text><text x="985" y="756" class="small">Contracts · x402 payment · EAS attestation · EIP-712 approval</text><text x="985" y="780" class="small">· Escrow settlement · Role and receipt reconstruction</text>

  <path d="M305 340H365" class="line"/><path d="M305 438H365" class="line"/><path d="M305 535H365" class="line"/>
  <path d="M617 305V345" class="line"/><path d="M605 408H630" class="line"/><path d="M500 470V515" class="line"/><path d="M605 580H630" class="line2"/>
  <path d="M735 515V470" class="line"/><path d="M500 645V690" class="line2"/>
  <path d="M840 580H900V257H960" class="line"/><path d="M840 742H905V422H960" class="line2"/>
  <path d="M1210 422H1250" class="line2"/><path d="M1380 310V365" class="line"/><path d="M1380 480V535H1235" class="line"/>
  <path d="M1235 640V690" class="audit"/><path d="M305 632H340V880H1235V795" class="audit"/>

  <rect x="55" y="880" width="1485" height="72" rx="7" class="panel"/>
  <circle cx="87" cy="916" r="7" fill="#6bc7e8"/><text x="105" y="921" class="small">Evidence + data</text>
  <circle cx="290" cy="916" r="7" fill="#d89b34"/><text x="308" y="921" class="small">Human authority + value</text>
  <circle cx="555" cy="916" r="7" fill="#69706d"/><text x="573" y="921" class="small">Public reconstruction</text>
  <text x="915" y="921" class="small">Network:</text><text x="984" y="921" class="mono">BASE SEPOLIA TESTNET</text>
  <text x="1250" y="921" class="small">Status:</text><text x="1310" y="921" class="green label">FUNCTIONAL MVP</text>
</svg>
